<svg width="41" height="41" viewBox="0 0 41 41" fill="none" xmlns="http://www.w3.org/2000/svg">
<path d="M31.125 19.25H23C21.875 19.25 21.125 19.8125 21.125 20.9375V40.5H33.625V21.75C33.625 20.375 32.5 19.25 31.125 19.25Z" fill="#FBBF67"/>
<path d="M23.125 22.375H22.875C22.625 22.375 22.375 22.625 22.375 23V40.5H23.625V23C23.625 22.625 23.375 22.375 23.125 22.375M26.25 22.375H26C25.75 22.375 25.5 22.625 25.5 23V40.5H26.75V23C26.75 22.625 26.5 22.375 26.25 22.375" fill="#D3976E"/>
<path d="M8.625 21.75H3C1.625 21.75 0.5 22.875 0.5 24.25V40.5H8.625V21.75Z" fill="#6ADBC6"/>
<path d="M6.4375 26.75C6.4375 27.0625 6.1875 27.375 5.8125 27.375H3.9375C3.5625 27.375 3.3125 27.0625 3.3125 26.75V25.5C3.3125 25.125 3.5625 24.875 3.9375 24.875H5.8125C6.1875 24.875 6.4375 25.125 6.4375 25.5V26.75ZM6.4375 31.75C6.4375 32.0625 6.1875 32.375 5.8125 32.375H3.9375C3.5625 32.375 3.3125 32.0625 3.3125 31.75V30.5C3.3125 30.125 3.5625 29.875 3.9375 29.875H5.8125C6.1875 29.875 6.4375 30.125 6.4375 30.5V31.75ZM6.4375 36.75C6.4375 37.0625 6.1875 37.375 5.8125 37.375H3.9375C3.5625 37.375 3.3125 37.0625 3.3125 36.75V35.5C3.3125 35.125 3.5625 34.875 3.9375 34.875H5.8125C6.1875 34.875 6.4375 35.125 6.4375 35.5V36.75Z" fill="white"/>
<path d="M9.875 7.375C8.625 7.375 7.5 8 6.8125 8.9375C6.4375 8.75 6 8.625 5.5 8.625C4 8.625 2.75 9.6875 2.4375 11.125H2.375C1.3125 11.125 0.5 11.9375 0.5 13C0.5 14.0625 1.3125 14.875 2.375 14.875H9.875C11.9375 14.875 13.625 13.1875 13.625 11.125C13.625 9.0625 11.9375 7.375 9.875 7.375ZM23 6.75C23.25 6.75 23.4375 6.8125 23.6875 6.875C23.9375 5.375 25.1875 4.25 26.75 4.25C28 4.25 29.0625 5 29.5625 6.0625C30 5.6875 30.5625 5.5 31.125 5.5C32.5 5.5 33.625 6.625 33.625 8C33.625 9.375 32.5 10.5 31.125 10.5H23C21.9375 10.5 21.125 9.6875 21.125 8.625C21.125 7.5625 21.9375 6.75 23 6.75Z" fill="#D6EEF0"/>
<path d="M20.25 11.6875L15.75 7.125C15.25 6.625 14.4375 6.625 14 7.125L9.5 11.6875C9 12.1875 8.625 13.125 8.625 13.875V40.5H21.125V13.8125C21.125 13.125 20.75 12.125 20.25 11.6875" fill="#D3976E"/>
<path d="M19.25 21.75C19.25 22.0625 18.9375 22.375 18.625 22.375H11.125C10.8125 22.375 10.5 22.0625 10.5 21.75V20.5C10.5 20.125 10.8125 19.875 11.125 19.875H18.625C18.9375 19.875 19.25 20.125 19.25 20.5V21.75ZM19.25 26.75C19.25 27.0625 18.9375 27.375 18.625 27.375H11.125C10.8125 27.375 10.5 27.0625 10.5 26.75V25.5C10.5 25.125 10.8125 24.875 11.125 24.875H18.625C18.9375 24.875 19.25 25.125 19.25 25.5V26.75ZM19.25 31.75C19.25 32.0625 18.9375 32.375 18.625 32.375H11.125C10.8125 32.375 10.5 32.0625 10.5 31.75V30.5C10.5 30.125 10.8125 29.875 11.125 29.875H18.625C18.9375 29.875 19.25 30.125 19.25 30.5V31.75ZM19.25 36.75C19.25 37.0625 18.9375 37.375 18.625 37.375H11.125C10.8125 37.375 10.5 37.0625 10.5 36.75V35.5C10.5 35.125 10.8125 34.875 11.125 34.875H18.625C18.9375 34.875 19.25 35.125 19.25 35.5V36.75ZM19.25 16.75C19.25 17.0625 18.9375 17.375 18.625 17.375H11.125C10.8125 17.375 10.5 17.0625 10.5 16.75V15.5C10.5 15.125 10.8125 14.875 11.125 14.875H18.625C18.9375 14.875 19.25 15.125 19.25 15.5V16.75Z" fill="#FFDD7D"/>
<path d="M38 12.375V9.25C38 8.5625 37.4375 8 36.75 8H34.875V1.125C34.875 0.75 34.625 0.5 34.25 0.5C33.875 0.5 33.625 0.75 33.625 1.125V8H31.75C31.0625 8 30.5 8.5625 30.5 9.25V12.375C29.125 12.375 28 13.5 28 14.875V40.5H40.5V14.875C40.5 13.5 39.375 12.375 38 12.375Z" fill="#6ADBC6"/>
<path d="M33.3125 16.125C33.3125 16.4375 33 16.75 32.6875 16.75H30.8125C30.5 16.75 30.1875 16.4375 30.1875 16.125V14.875C30.1875 14.5 30.5 14.25 30.8125 14.25H32.6875C33 14.25 33.3125 14.5 33.3125 14.875V16.125ZM38.3125 16.125C38.3125 16.4375 38 16.75 37.6875 16.75H35.8125C35.5 16.75 35.1875 16.4375 35.1875 16.125V14.875C35.1875 14.5 35.5 14.25 35.8125 14.25H37.6875C38 14.25 38.3125 14.5 38.3125 14.875V16.125ZM33.3125 20.5C33.3125 20.8125 33 21.125 32.6875 21.125H30.8125C30.5 21.125 30.1875 20.8125 30.1875 20.5V19.25C30.1875 18.875 30.5 18.625 30.8125 18.625H32.6875C33 18.625 33.3125 18.875 33.3125 19.25V20.5ZM38.3125 20.5C38.3125 20.8125 38 21.125 37.6875 21.125H35.8125C35.5 21.125 35.1875 20.8125 35.1875 20.5V19.25C35.1875 18.875 35.5 18.625 35.8125 18.625H37.6875C38 18.625 38.3125 18.875 38.3125 19.25V20.5ZM33.3125 24.875C33.3125 25.1875 33 25.5 32.6875 25.5H30.8125C30.5 25.5 30.1875 25.1875 30.1875 24.875V23.625C30.1875 23.25 30.5 23 30.8125 23H32.6875C33 23 33.3125 23.25 33.3125 23.625V24.875ZM38.3125 24.875C38.3125 25.1875 38 25.5 37.6875 25.5H35.8125C35.5 25.5 35.1875 25.1875 35.1875 24.875V23.625C35.1875 23.25 35.5 23 35.8125 23H37.6875C38 23 38.3125 23.25 38.3125 23.625V24.875ZM33.3125 29.25C33.3125 29.5625 33 29.875 32.6875 29.875H30.8125C30.5 29.875 30.1875 29.5625 30.1875 29.25V28C30.1875 27.625 30.5 27.375 30.8125 27.375H32.6875C33 27.375 33.3125 27.625 33.3125 28V29.25ZM38.3125 29.25C38.3125 29.5625 38 29.875 37.6875 29.875H35.8125C35.5 29.875 35.1875 29.5625 35.1875 29.25V28C35.1875 27.625 35.5 27.375 35.8125 27.375H37.6875C38 27.375 38.3125 27.625 38.3125 28V29.25ZM33.3125 33.625C33.3125 33.9375 33 34.25 32.6875 34.25H30.8125C30.5 34.25 30.1875 33.9375 30.1875 33.625V32.375C30.1875 32 30.5 31.75 30.8125 31.75H32.6875C33 31.75 33.3125 32 33.3125 32.375V33.625ZM38.3125 33.625C38.3125 33.9375 38 34.25 37.6875 34.25H35.8125C35.5 34.25 35.1875 33.9375 35.1875 33.625V32.375C35.1875 32 35.5 31.75 35.8125 31.75H37.6875C38 31.75 38.3125 32 38.3125 32.375V33.625ZM33.3125 38C33.3125 38.3125 33 38.625 32.6875 38.625H30.8125C30.5 38.625 30.1875 38.3125 30.1875 38V36.75C30.1875 36.375 30.5 36.125 30.8125 36.125H32.6875C33 36.125 33.3125 36.375 33.3125 36.75V38ZM38.3125 38C38.3125 38.3125 38 38.625 37.6875 38.625H35.8125C35.5 38.625 35.1875 38.3125 35.1875 38V36.75C35.1875 36.375 35.5 36.125 35.8125 36.125H37.6875C38 36.125 38.3125 36.375 38.3125 36.75V38Z" fill="white"/>
</svg>
