<svg width="41" height="41" viewBox="0 0 41 41" fill="none" xmlns="http://www.w3.org/2000/svg">
<path d="M33.5625 27.3125C32.625 20.75 27.125 15.75 20.5 15.75C13.875 15.75 8.375 20.75 7.4375 27.25H33.5625V27.3125Z" fill="#428BC1"/>
<path d="M39.125 14.8126C38.875 13.6876 38.1875 12.8126 37.1875 12.2501C36.75 12.0001 36.25 11.8751 35.75 11.8126C35.3125 11.7501 34.875 11.8126 34.4375 11.9376C33.6875 12.1251 32.9375 12.5001 32.25 12.8126C31.3125 13.2501 30.4375 13.6876 29.625 13.6876V16.5626C31.0625 16.5626 32.375 15.9376 33.5 15.3751C34.6875 14.8126 35.4375 14.4376 35.875 14.6876C36.1875 14.8751 36.375 15.1251 36.4375 15.4376C36.5 15.8126 36.5 16.3126 36.375 16.8751C36.25 17.5001 35.9375 18.1876 35.5625 19.0001C34.8125 20.5626 33.8125 22.0626 33.0625 23.1876C32.8125 23.6251 32.5625 24.0001 32.375 24.2501L32.1875 24.6251C32.1875 24.6876 32.125 24.6876 32.125 24.7501H9C9 24.6876 8.9375 24.6876 8.9375 24.6251L8.75 24.2501C8.5625 23.9376 8.3125 23.5626 8.0625 23.1876C7.3125 22.0626 6.3125 20.5626 5.5625 19.0001C5.1875 18.1876 4.9375 17.5001 4.75 16.8751C4.625 16.2501 4.5625 15.7501 4.6875 15.4376C4.75 15.1251 4.9375 14.8751 5.25 14.6876C5.6875 14.4376 6.4375 14.7501 7.625 15.3751C8.75 15.9376 10 16.5626 11.5 16.5626V13.6876C10.6875 13.6876 9.8125 13.2501 8.875 12.8126C8.1875 12.4376 7.4375 12.1251 6.6875 11.9376C6.125 11.8126 5.6875 11.7501 5.25 11.8126C4.75 11.8751 4.25 12.0001 3.8125 12.2501C2.8125 12.8126 2.125 13.7501 1.875 14.8126C1.5625 16.2501 1.875 18.0626 3 20.3126C3.8125 22.0001 4.875 23.6251 5.6875 24.8126C5.9375 25.1876 6.1875 25.5626 6.3125 25.8126C6.375 25.9376 6.4375 26.0626 6.5625 26.1876C6.9375 26.7501 7.1875 27.1876 7.3125 27.6876V34.7501C7.125 34.7501 7 34.8751 7 35.1251C7 35.3126 7.125 35.5001 7.3125 35.5001H33.75C33.9375 35.5001 34.0625 35.3751 34.0625 35.1251C34.0625 34.9376 33.9375 34.7501 33.75 34.7501V27.7501C33.9375 27.2501 34.1875 26.8126 34.5 26.2501C34.5625 26.1251 34.625 26.0001 34.75 25.8751C34.875 25.6251 35.125 25.2501 35.375 24.8751C36.125 23.6876 37.1875 22.0626 38.0625 20.3751C39.125 18.1251 39.4375 16.3126 39.125 14.8126" fill="#F2B200"/>
<path d="M21.0625 17.5C21.375 18.5 19.8125 20 17.5625 20.75C15.3125 21.5625 13.1875 21.375 12.8125 20.375C12.5 19.375 14.0625 17.875 16.3125 17.125C18.5625 16.375 20.6875 16.5 21.0625 17.5Z" fill="#42ADE2"/>
<path d="M19 28.375H22V35.125H19V28.375Z" fill="#FFDD7D"/>
<path d="M24.125 28.375H27.125V35.125H24.125V28.375Z" fill="#FFCE31"/>
<path d="M22 28.375H24.125V35.125H22V28.375Z" fill="white"/>
<path d="M29.25 28.375H31.375V35.125H29.25V28.375Z" fill="#FFCE31"/>
<path d="M7.25 28.375H9.375V35.125H7.25V28.375Z" fill="#F2B200"/>
<path d="M9.625 28.375H13.75V35.125H9.625V28.375Z" fill="#FFCE31"/>
<path d="M18.25 22.3125C18.25 23.25 16.5625 25.625 16.5625 25.625C16.5625 25.625 14.875 23.25 14.875 22.3125C14.875 21.375 15.625 20.625 16.5625 20.625C17.5 20.625 18.25 21.375 18.25 22.3125ZM26.0625 22.3125C26.0625 23.25 24.375 25.625 24.375 25.625C24.375 25.625 22.6875 23.25 22.6875 22.3125C22.6875 21.375 23.4375 20.625 24.375 20.625C25.3125 20.625 26.0625 21.375 26.0625 22.3125Z" fill="#F2B200"/>
<path d="M24.4375 8.375H16.5625L18.4375 5.4375H22.4375L24.4375 8.375Z" fill="#66CAF2"/>
<path d="M8.0625 21C9.5625 19.5625 12.5625 18.8125 14.5625 19.375C13 20.8125 10.0625 21.5625 8.0625 21ZM33.0625 21C31.0625 21.5625 28.0625 20.8125 26.5625 19.375C28.5625 18.8125 31.5625 19.5625 33.0625 21ZM17.125 19.3125C18.9375 18.25 22 18.25 23.8125 19.3125C22 20.375 19 20.375 17.125 19.3125" fill="#FFCE31"/>
<path d="M21.125 5.4375L21.8125 8.375H24.4375L22.4375 5.4375H21.125Z" fill="#428BC1"/>
<path d="M21.125 5.4375H19.75L19.1875 8.375H21.8125L21.125 5.4375Z" fill="#42ADE2"/>
<path d="M19.75 5.4375L19.1875 8.375H16.5625L18.4375 5.4375H19.75Z" fill="#66CAF2"/>
<path d="M7.6875 26.5625C11.9375 26.25 16.25 26.1875 20.5 26.1875C24.75 26.1875 29.0625 26.25 33.3125 26.5625C29.0625 26.875 24.75 26.9375 20.5 26.9375C16.25 26.875 11.9375 26.875 7.6875 26.5625Z" fill="#FFDD7D"/>
<path d="M7.25 28.375H33.6875V29.0625H7.25V28.375Z" fill="#428BC1"/>
<path d="M7.25 29.0625C7.42259 29.0625 7.5625 28.8946 7.5625 28.6875C7.5625 28.4804 7.42259 28.3125 7.25 28.3125C7.07741 28.3125 6.9375 28.4804 6.9375 28.6875C6.9375 28.8946 7.07741 29.0625 7.25 29.0625Z" fill="#428BC1"/>
<path d="M33.75 29.0625C33.9226 29.0625 34.0625 28.8946 34.0625 28.6875C34.0625 28.4804 33.9226 28.3125 33.75 28.3125C33.5774 28.3125 33.4375 28.4804 33.4375 28.6875C33.4375 28.8946 33.5774 29.0625 33.75 29.0625Z" fill="#428BC1"/>
<path d="M32.1875 13.25C32 12.5625 31.75 11.9375 31.3125 11.375C30.875 10.8125 30.375 10.3125 29.6875 9.9375C29.1875 9.6875 28.6875 9.5 28.125 9.4375C27.6875 9.375 27.1875 9.4375 26.6875 9.5625C25.875 9.75 25.0625 10.1875 24.25 10.5625C24.0625 10.6875 23.8125 10.75 23.5625 10.875C24.0625 9.875 24.375 8.9375 24.375 8.3125H16.5625C16.5625 8.9375 16.875 9.875 17.375 10.875C17.125 10.75 16.9375 10.6875 16.6875 10.5625C15.875 10.1875 15.0625 9.75 14.25 9.5625C13.75 9.4375 13.25 9.375 12.8125 9.4375C12.25 9.5 11.75 9.625 11.25 9.9375C10.625 10.3125 10.0625 10.8125 9.62499 11.375C9.24999 11.9375 8.93749 12.5625 8.74999 13.25C8.31249 15.0625 8.56249 17.375 9.56249 20.0625C10.3125 22.1875 11.3125 23.9375 11.75 24.8125H15.0625C14.9375 24.5625 14.75 24.3125 14.625 24.0625C14.5625 23.9375 14.4375 23.8125 14.375 23.6875C13.0625 21.5625 10.8125 16.75 11.5 14C11.6875 13.3125 12 12.8125 12.625 12.5C12.8125 12.375 13.0625 12.3125 13.625 12.4375C14.1875 12.5625 14.8125 12.875 15.5 13.25C16.5625 13.8125 17.75 14.375 19.0625 14.5625V24.875H21.875V14.5625C23.1875 14.375 24.375 13.8125 25.5 13.25C26.1875 12.9375 26.8125 12.5625 27.375 12.4375C27.9375 12.3125 28.1875 12.375 28.375 12.5C28.9375 12.8125 29.3125 13.3125 29.5 14C30.1875 16.75 27.9375 21.5 26.625 23.6875C26.5625 23.8125 26.4375 23.9375 26.375 24.0625C26.1875 24.3125 26.0625 24.5625 25.9375 24.8125H29.25C29.75 24 30.6875 22.1875 31.4375 20.0625C32.375 17.375 32.625 15.0625 32.1875 13.25Z" fill="#FFCE31"/>
<path d="M20.5 11.1875C19.4375 11.1875 18.5 10.75 17.75 10.125C17.9375 11.5 19.0625 12.5625 20.5 12.5625C21.875 12.5625 23.0625 11.5 23.25 10.125C22.5 10.8125 21.5625 11.1875 20.5 11.1875Z" fill="#F2B200"/>
</svg>
