<svg width="41" height="41" viewBox="0 0 41 41" fill="none" xmlns="http://www.w3.org/2000/svg">
<path d="M9.875 21.75L23.625 3L21.125 18H31.125L28.625 21.75L29.25 22.375L16.125 39.25L19.25 21.75H9.875Z" fill="#334155"/>
<path d="M28.625 21.75L31.125 18H21.125L23.625 3L9.875 21.75H19.25M28.625 21.75H19.25M28.625 21.75L29.25 22.375L16.125 39.25L19.25 21.75" stroke="#334155"/>
<path d="M7.60628 22.7201C7.18128 21.8839 7.26253 20.8832 7.81566 20.1251L8.40124 19.3501H33.185L19.1594 39.4401C18.675 40.1039 18.0294 40.4714 17.2437 40.4714C16.9027 40.4716 16.5652 40.4023 16.2519 40.2676C15.1738 39.8064 14.5613 38.6614 14.7769 37.5126L17.0457 24.1458L9.82941 24.0933C8.88878 24.0864 8.03066 23.5564 7.60628 22.7201Z" fill="#FACC15"/>
<path d="M23.7556 3.02812H23.7625H23.7556ZM23.7556 3.02812L20.935 17.8475L31.1532 17.8819L17.2444 37.9719L20.065 21.6681L9.84753 21.6325L23.7556 3.02812ZM23.7575 0.528154C23.69 0.528154 23.6226 0.530615 23.5563 0.535576C23.1151 0.57124 22.8225 0.71874 22.4757 0.951865C22.2804 1.08208 22.1043 1.23902 21.9526 1.41812C21.907 1.47187 21.864 1.52776 21.8238 1.58562L7.81566 20.125C7.26253 20.8831 7.18128 21.8838 7.60628 22.72C8.03066 23.5563 8.88878 24.0863 9.82941 24.0932L17.0457 24.1457L14.7769 37.5125C14.5613 38.6613 15.1738 39.8063 16.2519 40.2675C16.5652 40.4022 16.9027 40.4715 17.2437 40.4713C18.0294 40.4713 18.675 40.1038 19.1594 39.44L33.185 19.35C33.7382 18.5918 33.8188 17.59 33.3944 16.755C32.97 15.9187 32.1119 15.3887 31.1713 15.3818L23.955 15.3693L26.1994 3.6162C26.247 3.42378 26.2709 3.22629 26.2707 3.02808C26.2707 1.67558 25.1938 0.573076 23.8463 0.529326C23.8163 0.528076 23.7869 0.528076 23.7576 0.528076L23.7575 0.528154Z" fill="#EAB308"/>
</svg>
