<svg width="23" height="20" viewBox="0 0 23 20" fill="none" xmlns="http://www.w3.org/2000/svg">
<path fill-rule="evenodd" clip-rule="evenodd" d="M7.92746 4.68389C7.92746 5.27437 7.47583 5.75181 6.91948 5.75181C6.36169 5.75181 5.9115 5.27437 5.9115 4.68389C5.9115 4.09413 6.36169 3.6145 6.91948 3.6145C7.47619 3.6145 7.92746 4.09377 7.92746 4.68389Z" fill="#C8832E"/>
<path fill-rule="evenodd" clip-rule="evenodd" d="M5.51025 8.97837C5.51025 8.97837 7.87348 7.48862 6.66722 4.47656C6.66722 4.47656 10.9435 10.7363 12.1508 8.07288C13.3578 5.40912 11.7985 11.3235 11.6981 11.4826C11.5977 11.6432 9.58536 13.2416 9.58536 13.2416H6.41639L5.51025 8.97837Z" fill="#C8832E"/>
<path d="M16.0838 5.75181C16.6411 5.75181 17.0928 5.27368 17.0928 4.68389C17.0928 4.09409 16.6411 3.61597 16.0838 3.61597C15.5265 3.61597 15.0747 4.09409 15.0747 4.68389C15.0747 5.27368 15.5265 5.75181 16.0838 5.75181Z" fill="#C8832E"/>
<path fill-rule="evenodd" clip-rule="evenodd" d="M17.4916 8.97837C17.4916 8.97837 15.1269 7.48862 16.3346 4.47656C16.3346 4.47656 12.058 10.7363 10.8503 8.07288C9.64364 5.40912 11.2033 11.3235 11.3048 11.4826C11.4034 11.6432 13.4161 13.2416 13.4161 13.2416H16.5865L17.4916 8.97837Z" fill="#C8832E"/>
<path fill-rule="evenodd" clip-rule="evenodd" d="M21.6024 3.62084C20.8301 3.62084 20.2047 4.31851 20.2047 5.18046C20.2047 5.41022 20.2515 5.62826 20.3317 5.82436C18.169 7.08801 16.1591 9.03947 16.1591 9.03947C14.3314 11.1845 12.8512 7.68801 12.0441 5.00778C13.0272 4.72571 13.7559 3.73169 13.7559 2.5456C13.7559 1.13963 12.7354 0 11.4751 0C10.2152 0 9.1943 1.13963 9.1943 2.5456C9.1943 3.75035 9.94462 4.75534 10.9526 5.02168C10.1436 7.70228 8.66602 11.1837 6.84295 9.0413C6.84295 9.0413 4.8331 7.08984 2.66816 5.82619C2.75228 5.62228 2.79571 5.40341 2.79591 5.18229C2.79591 4.32034 2.16975 3.62266 1.3982 3.62266C0.626292 3.62266 0.000488281 4.32034 0.000488281 5.18229C0.000488281 6.04424 0.626652 6.74265 1.3982 6.74265C1.6573 6.74265 1.89589 6.65887 2.10461 6.52167C2.91215 8.2335 4.0522 11.3107 3.45698 14.1329C3.45698 14.1329 4.33325 17.7017 11.5003 17.5814C18.667 17.7017 19.5422 14.1329 19.5422 14.1329C18.9477 11.3118 20.0874 8.23532 20.8956 6.52167C21.1044 6.65887 21.343 6.74265 21.6021 6.74265C22.374 6.74265 23.0001 6.04424 23.0001 5.18229C23.0001 4.32034 22.3743 3.6223 21.6024 3.6223" fill="#F79420"/>
<path fill-rule="evenodd" clip-rule="evenodd" d="M11.5008 18.3971C5.77432 18.4933 4.06533 16.2353 3.6101 15.3232C3.59158 15.7349 3.54055 16.1444 3.45752 16.5477C3.45752 16.5477 4.33379 20.1159 11.5008 19.997C18.6675 20.1159 19.5427 16.5477 19.5427 16.5477C19.4599 16.1444 19.4091 15.7349 19.3909 15.3232C18.9356 16.2353 17.2281 18.4933 11.5008 18.3971Z" fill="#C8832E"/>
<path fill-rule="evenodd" clip-rule="evenodd" d="M11.177 17.5408C12.2055 12.2853 12.6201 6.92013 11.0795 1.69942C10.9039 1.10528 10.8578 0.55138 10.9086 0.041748C9.92254 0.323088 9.19381 1.31711 9.19381 2.50539C9.19381 3.71014 9.94413 4.7188 10.9521 4.98075C10.1431 7.66208 8.66553 11.1443 6.84246 9.00109C6.84246 9.00109 4.83262 7.04964 2.66767 5.78562C2.75186 5.5816 2.79528 5.3626 2.79543 5.14136C2.79543 4.28087 2.16926 3.58246 1.39771 3.58246C0.625804 3.58246 0 4.28087 0 5.14136C0 6.00403 0.626164 6.70245 1.39771 6.70245C1.65681 6.70245 1.8954 6.61793 2.10413 6.48147C2.91166 8.19219 4.05171 11.2705 3.4565 14.0916C3.4565 14.0916 4.31117 17.5478 11.177 17.5419" fill="#F19D43"/>
<path d="M11.501 13.021L12.1099 14.1771L13.4691 14.3615L12.4841 15.26L12.7173 16.5299L11.501 15.9295L10.2861 16.5299L10.5185 15.26L9.53467 14.3615L10.8928 14.1771L11.501 13.021Z" fill="white"/>
<path d="M11.4787 13.629C11.4708 13.4335 11.4824 13.2376 11.5132 13.0444L11.502 13.021L10.8935 14.1764L9.53467 14.3615L10.5171 15.2593L10.2857 16.5299L11.502 15.9306L12.7166 16.5299L12.6187 15.9906C11.9252 15.3763 11.5128 14.5235 11.4787 13.629ZM16.2548 13.6484L16.629 14.3556L17.461 14.4698L16.8597 15.0196L16.9997 15.7993L16.2548 15.4334L15.5099 15.7993L15.6524 15.0196L15.0499 14.4698L15.8841 14.3556L16.2548 13.6484Z" fill="white"/>
<path d="M16.2403 14.0204C16.2358 13.9006 16.2432 13.7806 16.2623 13.6622L16.2551 13.6479L15.8826 14.3555L15.0495 14.4693L15.6519 15.0195L15.5105 15.7992L16.2551 15.4333L16.9996 15.7992L16.9399 15.4684C16.5149 15.0912 16.2619 14.5673 16.2403 14.0204ZM6.71616 13.6483L7.0879 14.3555L7.92026 14.4697L7.31821 15.0195L7.46072 15.7992L6.71616 15.4333L5.97124 15.7992L6.11375 15.0195L5.51025 14.4697L6.34262 14.3555L6.71616 13.6483Z" fill="white"/>
<path d="M6.70105 14.0204C6.69519 13.9005 6.7028 13.7803 6.72372 13.6622L6.71616 13.6479L6.34262 14.3555L5.51025 14.4693L6.11231 15.0195L5.97088 15.7992L6.7158 15.4333L7.46036 15.7992L7.3999 15.4684C6.9749 15.0912 6.72228 14.5673 6.70105 14.0204Z" fill="white"/>
</svg>
